# xmcd CD database file
#
# Track frame offsets:
#	150
#	11972
#	34723
#	60960
#	82108
#	104802
#	132751
#	153097
#	173762
#	194685
#
# Disc length: 2726 seconds
#
# Revision: 0
# Processed by: cddbd v1.5.2PL0 Copyright (c) Steve Scherf et al.
# Submitted via: CDex 1.70beta2
#
DISCID=810aa40a
DTITLE=Hans Koller - jazz workshop concert ruhrfestspiele 1962
DYEAR=1962
DGENRE=Jazz
TTITLE0=Brassilia
TTITLE1=Airegin
TTITLE2=Training
TTITLE3=Good Morning Judge
TTITLE4=Free Way For Horns
TTITLE5=The Air From Another Planet
TTITLE6=Feeling Certain
TTITLE7=Die alte Bassgeige
TTITLE8=Eva
TTITLE9=H G Blues
EXTD=YEAR: 1962
EXTT0=
EXTT1=
EXTT2=
EXTT3=
EXTT4=
EXTT5=
EXTT6=
EXTT7=
EXTT8=
EXTT9=
PLAYORDER=
